<svg xmlns="http://www.w3.org/2000/svg" xmlns:xlink="http://www.w3.org/1999/xlink" width="40" height="40" viewBox="0 0 40 40">
    <defs>
        <rect id="b" width="500" height="924" rx="6"/>
        <filter id="a" width="106%" height="103.2%" x="-3%" y="-1.6%" filterUnits="objectBoundingBox">
            <feOffset in="SourceAlpha" result="shadowOffsetOuter1"/>
            <feGaussianBlur in="shadowOffsetOuter1" result="shadowBlurOuter1" stdDeviation="5"/>
            <feComposite in="shadowBlurOuter1" in2="SourceAlpha" operator="out" result="shadowBlurOuter1"/>
            <feColorMatrix in="shadowBlurOuter1" values="0 0 0 0 0 0 0 0 0 0 0 0 0 0 0 0 0 0 0.164005888 0"/>
        </filter>
        <path id="c" d="M34.5 0h319C372.554 0 388 15.446 388 34.5c0 19.054-15.446 34.5-34.5 34.5h-319C15.446 69 0 53.554 0 34.5 0 15.446 15.446 0 34.5 0z"/>
        <path id="e" d="M34.5 0H69v69H34.5C15.446 69 0 53.554 0 34.5 0 15.446 15.446 0 34.5 0z"/>
    </defs>
    <g fill="none" fill-rule="evenodd">
        <g transform="translate(-73 -272)">
            <use fill="#000" filter="url(#a)" xlink:href="#b"/>
            <use fill="#FCFCFC" xlink:href="#b"/>
            <rect width="499" height="923" x=".5" y=".5" stroke="#B7BCC2" rx="6"/>
        </g>
        <g transform="translate(-17 -14)">
            <mask id="d" fill="#fff">
                <use xlink:href="#c"/>
            </mask>
            <use fill="#4A90E2" xlink:href="#c"/>
            <g mask="url(#d)">
                <use fill="#FFF" xlink:href="#e"/>
                <path stroke="#4A90E2" stroke-width="2" d="M68 68V1H34.5C15.998 1 1 15.998 1 34.5 1 53.002 15.998 68 34.5 68H68z"/>
            </g>
            <g fill-rule="nonzero" mask="url(#d)">
                <path fill="#FFF" d="M30.76 15.198c-4.937 1.657-9.144 5.283-11.487 9.871a19.45 19.45 0 0 0-1.766 5.006 19.63 19.63 0 0 0 1.755 12.866 20.154 20.154 0 0 0 5.504 6.642 20.349 20.349 0 0 0 7.368 3.647c3.379.887 6.975.866 10.376.107 3.074-.696 5.984-2.14 8.305-4.236 2.452-2.214 4.207-5.123 5.134-8.256 1.013-3.412 1.144-7.06.512-10.567H37.387v7.764H48.44c-.425 2.482-1.929 4.75-4.054 6.15-1.341.888-2.878 1.455-4.469 1.733-1.591.267-3.248.3-4.84-.01A12.12 12.12 0 0 1 30.565 44a12.324 12.324 0 0 1-4.643-6.107c-.86-2.492-.872-5.262 0-7.744a12.389 12.389 0 0 1 2.943-4.695 12.088 12.088 0 0 1 6.06-3.305 12.319 12.319 0 0 1 5.951.236 10.961 10.961 0 0 1 4.37 2.524l3.728-3.658c.654-.652 1.34-1.283 1.973-1.957-1.886-1.711-4.11-3.091-6.529-3.968-4.36-1.583-9.264-1.615-13.656-.128z"/>
                <path fill="#EA4335" d="M30.76 15.198c6.511-2.237 14.212-1.008 19.46 3.456 1.552.758-.6 1.656-1.124 2.464-1.282 1.262-2.568 2.52-3.85 3.78-3.579-3.458-9.525-3.954-13.784-1.437a12.349 12.349 0 0 0-5.54 6.678c-2.214-1.69-4.432-3.374-6.65-5.06 2.335-4.584 6.543-8.222 11.488-9.881z"/>
                <path fill="#FBBC05" d="M17.518 30.064c.36-1.735.95-3.426 1.766-5.005 2.213 1.69 4.431 3.373 6.648 5.058a11.788 11.788 0 0 0 0 7.744c-2.21 1.688-4.421 3.376-6.637 5.058-2.05-3.924-2.67-8.538-1.777-12.855z"/>
                <path fill="#4285F4" d="M37.387 30.267h19.074c1.009 5.624.07 11.786-3.462 16.436-.65.86-1.38 1.663-2.184 2.388l-6.441-4.91c2.124-1.398 3.631-3.672 4.054-6.15H37.376c.011-2.587.011-5.176.011-7.764z"/>
                <path fill="#34A853" d="M19.273 42.93c2.216-1.682 4.427-3.37 6.638-5.059 1.534 4.626 6.123 8.148 11.115 8.242 2.566.063 5.202-.518 7.348-1.942l6.441 4.909c-4.558 4.144-11.228 5.523-17.244 4.45-6.115-1.096-11.53-5.148-14.298-10.6z"/>
            </g>
        </g>
    </g>
</svg>
